<svg width="34" height="34" viewBox="0 0 34 34" fill="none" xmlns="http://www.w3.org/2000/svg">
<path d="M33.99 0H0.00996094C0.00445966 0 0 0.00445966 0 0.00996094V33.99C0 33.9955 0.00445966 34 0.00996094 34H33.99C33.9955 34 34 33.9955 34 33.99V0.00996094C34 0.00445966 33.9955 0 33.99 0Z" fill="#F7DF1E"/>
<path d="M21.5156 24.5703C22.1797 25.6992 23.1094 26.4961 24.6367 26.4961C25.9648 26.4961 26.8281 25.832 26.8281 24.9023C26.8281 23.8398 25.9648 23.4414 24.5039 22.7773L23.707 22.4453C21.3828 21.4492 19.8555 20.2539 19.8555 17.6641C19.8555 15.2734 21.6484 13.4141 24.5039 13.4141C26.5625 13.4141 28.0234 14.1445 29.0195 16.0039L26.5625 17.5977C26.0312 16.6016 25.4336 16.2031 24.5039 16.2031C23.5742 16.2031 22.9766 16.8008 22.9766 17.5977C22.9766 18.5273 23.5742 18.9258 24.9688 19.5234L25.7656 19.8555C28.4883 21.0508 30.0156 22.1797 30.0156 24.9023C30.0156 27.7578 27.7578 29.3516 24.7031 29.3516C21.7148 29.3516 19.7891 27.957 18.8594 26.0977L21.5156 24.5703ZM10.2266 24.8359C10.7578 25.6992 11.1562 26.4961 12.2852 26.4961C13.3477 26.4961 14.0117 26.0977 14.0117 24.5039V13.4805H17.1992V24.3711C17.1992 27.6914 15.2734 29.1523 12.418 29.1523C9.82812 29.1523 8.36719 27.8242 7.63672 26.2305L10.2266 24.8359Z" fill="black"/>
</svg>
